<?xml version="1.0" encoding="utf-8"?>
<svg viewBox="0 0 86.39 67.604" xmlns="http://www.w3.org/2000/svg" xmlns:xlink="http://www.w3.org/1999/xlink">
  <defs>
    <linearGradient id="a" x1="43.027" y1="45.047" x2="43.027" y2="58.63" gradientUnits="userSpaceOnUse">
      <stop offset="0" style="stop-color: rgb(34, 162, 221);"/>
      <stop offset="1" style="stop-color: rgb(34, 162, 221);"/>
    </linearGradient>
    <linearGradient id="b" x1="525.617" y1="7.789" x2="527.407" y2="-18.261" gradientTransform="matrix(-1.007, 0.061, 0.036, 0.991, 544.475, -11.924)" gradientUnits="userSpaceOnUse">
      <stop offset="0" style="stop-color: rgb(34, 162, 221);"/>
      <stop offset="0.991" style="stop-color: rgb(34, 162, 221);"/>
    </linearGradient>
    <linearGradient id="c" x1="17.591" y1="29.148" x2="8.252" y2="63.946" gradientTransform="matrix(1, 0, 0, 1, 0, 0)" xlink:href="#b"/>
    <linearGradient id="d" x1="5.968" y1="52.41" x2="15.375" y2="65.278" gradientUnits="userSpaceOnUse">
      <stop offset="0" stop-color="#fff" stop-opacity="0"/>
      <stop offset="1" stop-color="#0077b6"/>
    </linearGradient>
    <linearGradient id="e" x1="519.326" y1="27.881" x2="518.466" y2="7.939" xlink:href="#b"/>
    <linearGradient id="f" x1="21.489" y1="48.514" x2="30.098" y2="29.843" xlink:href="#d"/>
    <linearGradient id="g" x1="346.959" y1="18.694" x2="348.75" y2="-7.355" gradientTransform="matrix(1.007, 0.061, -0.036, 0.991, -277.818, -11.924)" xlink:href="#a"/>
    <linearGradient id="h" x1="193.418" y1="29.193" x2="189.516" y2="82.266" gradientTransform="matrix(-1, 0, 0, 1, 266.657, 0)" xlink:href="#a"/>
    <linearGradient id="i" x1="83.501" y1="52.164" x2="69.579" y2="65.448" xlink:href="#d"/>
    <linearGradient id="j" x1="63.637" y1="42.579" x2="63.756" y2="27.509" xlink:href="#a"/>
    <linearGradient id="k" x1="69.634" y1="50.258" x2="54.282" y2="30.239" xlink:href="#d"/>
    <linearGradient id="l" x1="42.506" y1="36.395" x2="43.875" y2="9.87" gradientTransform="matrix(0.99999, -0.004289, 0.00431, 0.999779, -0.042109, 0.190358)" xlink:href="#a"/>
    <linearGradient id="m" x1="32.297" y1="44.382" x2="22.546" y2="79.618" gradientTransform="matrix(1.034, 0.056, 0.086, 0.972, -6.574, -11.18)" xlink:href="#a"/>
    <linearGradient id="n" x1="53.187" y1="75.863" x2="61.652" y2="47.468" gradientTransform="matrix(1.007, 0.061, -0.036, 0.991, -0.968, -11.924)" xlink:href="#a"/>
    <style>.a{isolation:isolate;}.b{fill:url(#a);}.c{fill:url(#b);}.d{fill:url(#c);}.e,.g,.j,.l{opacity:0.63;mix-blend-mode:multiply;}.e{fill:url(#d);}.f{fill:url(#e);}.g{fill:url(#f);}.h{fill:url(#g);}.i{fill:url(#h);}.j{fill:url(#i);}.k{fill:url(#j);}.l{fill:url(#k);}.m{fill:url(#l);}.n{fill:url(#m);}.o{fill:url(#n);}</style>
  </defs>
  <g class="a" transform="matrix(0.9999999999999999, 0, 0, 0.9999999999999999, -7.105427357601002e-15, 0)">
    <path class="b" d="M33.351,45.09H52.7a0,0,0,0,1,0,0v3.454a9.676,9.676,0,0,1-9.676,9.676h0a9.676,9.676,0,0,1-9.676-9.676V45.09A0,0,0,0,1,33.351,45.09Z"/>
    <path class="c" d="M23.694,10.625c.272,5.476-3.457,10.069-8.475,10.583-5.2.532-10.3-3.454-11.263-9.271C2.923,5.7,7.038.16,12.986,0,18.694-.147,23.4,4.776,23.694,10.625Z"/>
    <path class="d" d="M15.441,28.139l7.167-1.733L8.065,27.757C2.871,28.243.267,33.5.209,38.6L0,57.99H0A9.56,9.56,0,0,0,9.559,67.6H22.608V58.252H19.8A5.649,5.649,0,0,1,14.161,52.3Z"/>
    <path class="e" d="M14.161,52.3l.167-3.154c-3.406,0-6.827.264-10.2.4q-2.013.079-4.035.1L0,57.99A9.56,9.56,0,0,0,9.559,67.6H22.608V58.252H19.8A5.649,5.649,0,0,1,14.161,52.3Z"/>
    <path class="f" d="M25.907,50.505,18.719,34.1A10.731,10.731,0,0,0,9.28,27.91l-1.741-.092,15.314-1.449c4.163-.658,8.1,1.831,9.812,5.946l5.2,12.511C37.092,45.019,25.907,50.505,25.907,50.505Z"/>
    <path class="g" d="M33.061,33.444c.02-.007.044-.013.066-.019l4.741,11.4c-.776.193-11.961,5.679-11.961,5.679L18.719,34.1a9.627,9.627,0,0,0-3.367-4.109C22.437,35.344,27.406,35.344,33.061,33.444Z"/>
    <path class="h" d="M62.7,10.625c-.272,5.476,3.458,10.069,8.475,10.583,5.2.532,10.3-3.454,11.263-9.271C83.467,5.7,79.352.16,73.4,0,67.7-.147,62.986,4.776,62.7,10.625Z"/>
    <path class="i" d="M70.949,28.139l-7.167-1.733,14.544,1.351c5.193.486,7.8,5.741,7.855,10.841L86.39,57.99h0A9.56,9.56,0,0,1,76.831,67.6H63.782V58.252h2.806A5.649,5.649,0,0,0,72.229,52.3Z"/>
    <path class="j" d="M72.222,52.17l.007.134a5.649,5.649,0,0,1-5.641,5.948H63.782V67.6H76.831A9.56,9.56,0,0,0,86.39,57.99l-.063-5.82Z"/>
    <path class="k" d="M60.483,50.505l7.189-16.4a10.728,10.728,0,0,1,9.439-6.19l1.74-.092L63.537,26.369c-4.163-.658-8.1,1.831-9.812,5.946l-5.2,12.511C49.3,45.019,60.483,50.505,60.483,50.505Z"/>
    <path class="l" d="M53.329,33.444c-.02-.007-.044-.013-.066-.019l-4.741,11.4c.776.193,11.961,5.679,11.961,5.679l7.189-16.4a9.612,9.612,0,0,1,3.367-4.109C63.954,35.344,58.984,35.344,53.329,33.444Z"/>
    <path class="m" d="M54.19,19.362c0,.353-.016.712-.047,1.071-.537,6.092-5.455,10.667-11.085,10.5-5.718-.168-10.442-5.158-10.48-11.45A11.656,11.656,0,0,1,38.864,8.876a10.193,10.193,0,0,1,4.278-1.052c.29-.006.584,0,.877.016a10.984,10.984,0,0,1,9.93,9.074A12.142,12.142,0,0,1,54.19,19.362Z"/>
    <path class="n" d="M43.362,35.987l-6.25,24.787c-1.035,3.943-5.012,6.58-9.969,6.676L19.91,67.6H10.326L15.7,64.91a10.769,10.769,0,0,0,5.8-7.9L23.64,43.828c.9-4.912,5.45-8.26,11.212-8.138l.631.013h.074Z"/>
    <path class="o" d="M74.46,67.6H59.582a9.388,9.388,0,0,1-9.31-6.571l-3.9-17.155A10.739,10.739,0,0,0,38.661,36.5l-3.192-.8,16.91.426a10.62,10.62,0,0,1,10.428,8.353l2.828,14.181a11.121,11.121,0,0,0,6.934,8.213Z"/>
  </g>
</svg>