<?xml version="1.0" encoding="utf-8"?>
<svg viewBox="0 0 317.602 87.609" xmlns="http://www.w3.org/2000/svg" xmlns:xlink="http://www.w3.org/1999/xlink">
  <defs>
    <linearGradient id="a" x1="55.758" y1="58.377" x2="55.758" y2="75.979" gradientUnits="userSpaceOnUse">
      <stop offset="0" style="stop-color: rgb(34, 162, 221);"/>
      <stop offset="1" style="stop-color: rgb(34, 162, 221);"/>
    </linearGradient>
    <linearGradient id="b" x1="520.985" y1="16.22" x2="523.306" y2="-17.538" gradientTransform="matrix(-1.007, 0.061, 0.036, 0.991, 544.114, -11.835)" gradientUnits="userSpaceOnUse">
      <stop offset="0" style="stop-color: rgb(34, 162, 221);"/>
      <stop offset="0.991" style="stop-color: rgb(34, 162, 221);"/>
    </linearGradient>
    <linearGradient id="c" x1="22.796" y1="37.774" x2="10.694" y2="82.867" gradientTransform="matrix(1, 0, 0, 1, 0, 0)" xlink:href="#b"/>
    <linearGradient id="d" x1="7.734" y1="67.918" x2="19.925" y2="84.594" gradientUnits="userSpaceOnUse">
      <stop offset="0" stop-color="#fff" stop-opacity="0"/>
      <stop offset="1" stop-color="#0077b6"/>
    </linearGradient>
    <linearGradient id="e" x1="512.833" y1="42.258" x2="511.719" y2="16.415" xlink:href="#b"/>
    <linearGradient id="f" x1="27.848" y1="62.869" x2="39.005" y2="38.674" xlink:href="#d"/>
    <linearGradient id="g" x1="367.663" y1="25.58" x2="369.983" y2="-8.178" gradientTransform="matrix(1.007, 0.061, -0.036, 0.991, -277.457, -11.835)" xlink:href="#a"/>
    <linearGradient id="h" x1="171.747" y1="37.831" x2="166.69" y2="106.608" gradientTransform="matrix(-1, 0, 0, 1, 266.657, 0)" xlink:href="#a"/>
    <linearGradient id="i" x1="108.21" y1="67.599" x2="90.168" y2="84.815" xlink:href="#d"/>
    <linearGradient id="j" x1="82.468" y1="55.178" x2="82.622" y2="35.649" xlink:href="#a"/>
    <linearGradient id="k" x1="90.239" y1="65.13" x2="70.345" y2="39.186" xlink:href="#d"/>
    <linearGradient id="l" x1="55.083" y1="47.164" x2="56.857" y2="12.79" xlink:href="#a"/>
    <linearGradient id="m" x1="41.104" y1="53.865" x2="28.468" y2="99.527" gradientTransform="matrix(1.034, 0.056, 0.086, 0.972, -7.431, -10.899)" xlink:href="#a"/>
    <linearGradient id="n" x1="68.152" y1="94.708" x2="79.123" y2="57.911" gradientTransform="matrix(1.007, 0.061, -0.036, 0.991, -0.607, -11.835)" xlink:href="#a"/>
    <style>.a{isolation:isolate;}.b{fill:url(#a);}.c{fill:url(#b);}.d{fill:url(#c);}.e,.g,.j,.l{opacity:0.63;mix-blend-mode:multiply;}.e{fill:url(#d);}.f{fill:url(#e);}.g{fill:url(#f);}.h{fill:url(#g);}.i{fill:url(#h);}.j{fill:url(#i);}.k{fill:url(#j);}.l{fill:url(#k);}.m{fill:url(#l);}.n{fill:url(#m);}.o{fill:url(#n);}.p{fill:#0077b6;}.q{fill:#03045e;}</style>
  </defs>
  <g class="a" transform="matrix(1, 0, 0, 1, 0, -7.105427357601002e-15)">
    <path class="b" d="M43.22,58.433H68.3a0,0,0,0,1,0,0v4.476A12.539,12.539,0,0,1,55.758,75.447h0A12.539,12.539,0,0,1,43.22,62.909V58.433A0,0,0,0,1,43.22,58.433Z"/>
    <path class="c" d="M30.706,13.768c.352,7.1-4.481,13.05-10.984,13.715-6.744.69-13.348-4.476-14.6-12.013C3.788,7.382,9.121.208,16.829,0,24.225-.191,30.33,6.189,30.706,13.768Z"/>
    <path class="d" d="M20.01,36.465,29.3,34.22,10.451,35.97C3.72,36.6.346,43.41.271,50.02L0,75.15H0A12.388,12.388,0,0,0,12.388,87.607H29.3V75.489H25.662a7.32,7.32,0,0,1-7.311-7.708Z"/>
    <path class="e" d="M18.351,67.781l.217-4.087c-4.414,0-8.848.342-13.222.512q-2.608.1-5.229.135L0,75.15A12.388,12.388,0,0,0,12.388,87.607H29.3V75.489H25.662A7.32,7.32,0,0,1,18.351,67.781Z"/>
    <path class="f" d="M33.573,65.449,24.258,44.19c-1.912-4.576-6.757-7.731-12.233-8.021l-2.256-.12,19.847-1.878c5.394-.851,10.5,2.374,12.715,7.707L49.074,58.09C48.068,58.34,33.573,65.449,33.573,65.449Z"/>
    <path class="g" d="M42.844,43.34c.026-.009.057-.016.085-.024L49.074,58.09c-1.006.25-15.5,7.359-15.5,7.359L24.258,44.19a12.467,12.467,0,0,0-4.364-5.325C29.076,45.8,35.515,45.8,42.844,43.34Z"/>
    <path class="h" d="M81.248,13.768c-.353,7.1,4.481,13.05,10.983,13.715,6.744.69,13.348-4.476,14.6-12.013C108.165,7.382,102.833.208,95.125,0,87.728-.191,81.624,6.189,81.248,13.768Z"/>
    <path class="i" d="M91.943,36.465,82.655,34.22,101.5,35.97c6.73.63,10.105,7.44,10.179,14.05l.271,25.13h0A12.388,12.388,0,0,1,99.566,87.607H82.655V75.489h3.637a7.32,7.32,0,0,0,7.31-7.708Z"/>
    <path class="j" d="M93.593,67.608l.009.173a7.32,7.32,0,0,1-7.31,7.708H82.655V87.607H99.566A12.388,12.388,0,0,0,111.953,75.15l-.081-7.542Z"/>
    <path class="k" d="M78.38,65.449,87.7,44.19c1.911-4.576,6.756-7.731,12.232-8.021l2.256-.12L82.337,34.171c-5.394-.851-10.5,2.374-12.715,7.707L62.88,58.09C63.886,58.34,78.38,65.449,78.38,65.449Z"/>
    <path class="l" d="M69.109,43.34c-.026-.009-.057-.016-.085-.024L62.88,58.09c1.006.25,15.5,7.359,15.5,7.359L87.7,44.19a12.472,12.472,0,0,1,4.363-5.325C82.878,45.8,76.438,45.8,69.109,43.34Z"/>
    <path class="m" d="M70.225,25.091c0,.457-.02.923-.061,1.388-.7,7.9-7.069,13.823-14.365,13.613-7.41-.219-13.532-6.685-13.581-14.839A15.1,15.1,0,0,1,50.364,11.5a13.217,13.217,0,0,1,5.544-1.364c.376-.008.757,0,1.137.02,6.539.393,11.594,5.415,12.868,11.76A15.755,15.755,0,0,1,70.225,25.091Z"/>
    <path class="n" d="M56.193,46.636l-8.1,32.121c-1.341,5.11-6.5,8.527-12.92,8.652l-9.373.2H13.382l6.96-3.49A13.952,13.952,0,0,0,27.86,73.883L30.636,56.8c1.167-6.365,7.062-10.7,14.529-10.546l.818.017h.1Z"/>
    <path class="o" d="M96.494,87.607H77.212a12.164,12.164,0,0,1-12.064-8.516L60.091,56.86a13.915,13.915,0,0,0-9.99-9.555l-4.136-1.034,21.913.552A13.765,13.765,0,0,1,81.392,57.648l3.664,18.377a14.416,14.416,0,0,0,8.987,10.644Z"/>
    <path class="p" d="M122.63,26.51h5.787V61.1H122.63ZM125.27,41.4h9.822a3.185,3.185,0,0,0,1.827-.536,3.536,3.536,0,0,0,1.236-1.51,5.349,5.349,0,0,0,.443-2.237,5.608,5.608,0,0,0-.433-2.272,3.453,3.453,0,0,0-1.225-1.522,3.22,3.22,0,0,0-1.848-.535H125.27V26.51h9.674A9.585,9.585,0,0,1,140,27.83a8.883,8.883,0,0,1,3.39,3.723,12.264,12.264,0,0,1,1.205,5.566,12.19,12.19,0,0,1-1.205,5.555,8.819,8.819,0,0,1-3.39,3.7,9.653,9.653,0,0,1-5.059,1.309H125.27Z" style="fill: rgb(34, 162, 221);"/>
    <path class="p" d="M153.893,59.946a9.585,9.585,0,0,1-3.823-4.4,16.761,16.761,0,0,1-1.31-6.958V26.51h5.788V48.752a6.846,6.846,0,0,0,1.415,4.615,4.984,4.984,0,0,0,3.992,1.642,5.042,5.042,0,0,0,4.024-1.642,6.812,6.812,0,0,0,1.426-4.615V26.51h5.788V48.586a16.661,16.661,0,0,1-1.321,6.958,9.638,9.638,0,0,1-3.844,4.4,12.945,12.945,0,0,1-12.135,0Z" style="fill: rgb(34, 162, 221);"/>
    <path class="p" d="M177.15,26.51h5.788V61.1H177.15Zm2.577,28.309h18V61.1h-18Z" style="fill: rgb(34, 162, 221);"/>
    <path class="p" d="M208.6,61.456l-2.1-.5a16.974,16.974,0,0,1-3.95-1.463,14.984,14.984,0,0,1-3.306-2.319l2.683-5.377a12.609,12.609,0,0,0,4.1,2.534,13.211,13.211,0,0,0,4.775.892,7.645,7.645,0,0,0,4.393-1.082,3.5,3.5,0,0,0,1.563-3.057V51.06a3.243,3.243,0,0,0-.7-2.189,4.066,4.066,0,0,0-1.817-1.189,19.844,19.844,0,0,0-2.872-.69.334.334,0,0,0-.116-.024.35.35,0,0,1-.116-.023l-.465-.072a25.889,25.889,0,0,1-5.113-1.368,7.659,7.659,0,0,1-3.442-2.878,10.242,10.242,0,0,1-1.415-5.841v-.024a11.572,11.572,0,0,1,1.33-5.732A8.734,8.734,0,0,1,205.9,27.4a13.742,13.742,0,0,1,6.125-1.249,13.942,13.942,0,0,1,3.369.428,16.871,16.871,0,0,1,3.37,1.237,18.277,18.277,0,0,1,3.125,1.951l-2.45,5.519a14.96,14.96,0,0,0-3.707-2.141,10.089,10.089,0,0,0-3.707-.762,7.3,7.3,0,0,0-4.119.988,3.158,3.158,0,0,0-1.457,2.771v.024a3.464,3.464,0,0,0,.761,2.367,4.474,4.474,0,0,0,1.88,1.273,27.171,27.171,0,0,0,3.147.856,1.24,1.24,0,0,0,.169.036,1.308,1.308,0,0,1,.169.036,1.99,1.99,0,0,1,.242.059,2.006,2.006,0,0,0,.243.059,23.552,23.552,0,0,1,4.87,1.558,7.84,7.84,0,0,1,3.263,2.951,10.179,10.179,0,0,1,1.31,5.554v.048a11.06,11.06,0,0,1-1.373,5.662,8.86,8.86,0,0,1-4,3.592,14.763,14.763,0,0,1-6.326,1.237Z" style="fill: rgb(34, 162, 221);"/>
    <path class="p" d="M227.4,26.51h5.787V61.1H227.4Zm2.091,0h18.482v6.28H229.5Zm0,14.273h16.159v6.28H229.5Zm0,14.036h18.482V61.1H229.5Z" style="fill: rgb(34, 162, 221);"/>
    <path class="q" d="M264.963,26.51h5.787V61.1h-5.787Zm2.682,14.3h17.891v6.28H267.645Zm14.131-14.3h5.788V61.1h-5.788Z" style="fill: rgb(30, 22, 102);"/>
    <path class="q" d="M294.367,26.486h5.787V61.1h-5.787Zm2.3,14.416h10.688a2.562,2.562,0,0,0,1.564-.5,3.2,3.2,0,0,0,1.046-1.428,6.049,6.049,0,0,0,.39-2.141,5.764,5.764,0,0,0-.37-2.141,3.182,3.182,0,0,0-1.045-1.427,2.6,2.6,0,0,0-1.585-.5H296.669v-6.28h11.153a7.832,7.832,0,0,1,4.457,1.284,8.384,8.384,0,0,1,2.979,3.628,13.122,13.122,0,0,1,1.055,5.436,13.116,13.116,0,0,1-1.055,5.436,8.351,8.351,0,0,1-2.99,3.628,7.846,7.846,0,0,1-4.446,1.284H296.669Zm6.464,5.21,6.189-1.095L317.6,61.1H310.59Z" style="fill: rgb(30, 22, 102);"/>
  </g>
</svg>